# xmcd
#
# Track frame offsets: 
#        150
#        2326
#        18370
#        31114
#        49415
#        70982
#        84735
#        106265
#        125011
#        146374
#        173379
#        190092
#        208188
#
# Disc length: 3049 seconds
#
# Revision: 0
# Processed by: cddbd v1.5.2PL0 Copyright (c) Steve Scherf et al.
# Submitted via: ExactAudioCopy v0.99pb4
#
DISCID=a50be70d
DTITLE=JUANITA DU PLESSIS and THEUNS JORDAAN - Bring jou Hart 
DYEAR=2007
DGENRE=Gospel
TTITLE0=Intro 
TTITLE1=Bring jou Hart
TTITLE2=Vergeet om te vergeet
TTITLE3=My Best Friend 
TTITLE4=Beautiful in Beaufort-Wes
TTITLE5=Hanne
TTITLE6=Namibsroos
TTITLE7=Skipskop
TTITLE8=Vier Seisoene Kind
TTITLE9=Country Medley
TTITLE10=Jou Skaduwee
TTITLE11=Vlieg Hoog
TTITLE12=Gospel Medley
EXTD=
EXTT0=
EXTT1=
EXTT2=
EXTT3=
EXTT4=
EXTT5=
EXTT6=
EXTT7=
EXTT8=
EXTT9=
EXTT10=
EXTT11=
EXTT12=
PLAYORDER=
